<?xml version="1.0" encoding="iso-8859-1"?>
<!-- Generator: Adobe Illustrator 18.0.0, SVG Export Plug-In . SVG Version: 6.00 Build 0)  -->
<!DOCTYPE svg PUBLIC "-//W3C//DTD SVG 1.1//EN" "http://www.w3.org/Graphics/SVG/1.1/DTD/svg11.dtd">
<svg version="1.1" id="Capa_1" xmlns="http://www.w3.org/2000/svg" xmlns:xlink="http://www.w3.org/1999/xlink" x="0px" y="0px"
	 viewBox="0 0 488.94 488.94" style="enable-background:new 0 0 488.94 488.94;" xml:space="preserve">
<g>
	<g id="XMLID_99_">
		<path d="M84.702,180.373H0V95.682h84.702V180.373z M16.766,163.615h51.171V112.44H16.766V163.615z"/>
	</g>
	<g id="XMLID_152_">
		<path d="M84.702,287.277H0v-84.691h84.702V287.277z M16.766,270.519h51.171v-51.175H16.766V270.519z"/>
	</g>
	<g id="XMLID_153_">
		<path d="M84.702,393.258H0v-84.691h84.702V393.258z M16.766,376.5h51.171v-51.175H16.766V376.5z"/>
	</g>
	<g id="XMLID_156_">
		<path d="M488.94,180.373H115.283V95.682H488.94V180.373z M132.049,163.615h340.126V112.44H132.049V163.615z"/>
	</g>
	<g id="XMLID_154_">
		<path d="M488.94,287.277H115.283v-84.691H488.94V287.277z M132.049,270.519h340.126v-51.175H132.049V270.519z"/>
	</g>
	<g id="XMLID_155_">
		<path d="M488.94,393.258H115.283v-84.691H488.94V393.258z M132.049,376.5h340.126v-51.175H132.049V376.5z"/>
	</g>
</g>
<g>
</g>
<g>
</g>
<g>
</g>
<g>
</g>
<g>
</g>
<g>
</g>
<g>
</g>
<g>
</g>
<g>
</g>
<g>
</g>
<g>
</g>
<g>
</g>
<g>
</g>
<g>
</g>
<g>
</g>
</svg>
